<svg xmlns="http://www.w3.org/2000/svg" version="1.1" xmlns:xlink="http://www.w3.org/1999/xlink" width="512" height="512" x="0" y="0" viewBox="0 0 256 256" style="enable-background:new 0 0 512 512" xml:space="preserve" class=""><g transform="matrix(1.1799999999999997,0,0,1.1799999999999997,-23.136675567626895,-23.286598434448223)"><path fill="#fea638" d="M176.188 160s-22.999 10.749-25.99 33.901c1.246 6.2 6.635 14.975 11.332 22.931 0 0 1.496 6.616-16.455 9.924h-38.12c-17.953-3.308-16.457-9.924-16.457-9.924 4.697-7.956 10.086-16.732 11.333-22.93C98.84 170.748 75.841 160 75.841 160" opacity="1" data-original="#fea638"></path><path fill="#ffc344" d="M135.489 183.717s1.496-19.018 14.21-28.94c0 0-2.244-7.995-19.445-7.995h-8.479c-17.201 0-19.445 7.994-19.445 7.994 12.714 9.923 14.21 28.941 14.21 28.941v16.517s-1.496 19.019-14.21 28.941c0 0 2.244 7.995 19.445 7.995h8.479c17.2 0 19.445-7.995 19.445-7.995-12.714-9.922-14.21-28.94-14.21-28.94z" opacity="1" data-original="#ffc344"></path><path fill="#ffd15b" d="m30.339 122.735-2.104 2.218c-5.925 6.248-1.731 16.565 6.872 16.907l2.995.12a10.02 10.02 0 0 1 9.613 9.602l.126 3.062c.351 8.592 10.653 12.779 16.899 6.867l.001-.001c4.638-4.39 12.143-3.379 15.455 2.08l2.342 3.862c3.864 6.37 13.082 6.445 17.05.138l.415-.66c3.929-6.248 13.034-6.247 16.964 0l.568.905c3.93 6.247 13.035 6.247 16.964 0l.57-.905c3.928-6.247 13.034-6.247 16.963 0l.414.658c3.966 6.308 13.186 6.233 17.05-.14l2.337-3.854c3.312-5.46 10.817-6.472 15.456-2.082 6.246 5.911 16.547 1.725 16.899-6.868l.125-3.061a10.02 10.02 0 0 1 9.613-9.603l2.996-.119c8.603-.342 12.797-10.66 6.872-16.907l-2.104-2.219a10.02 10.02 0 0 1-.131-13.648l2.92-3.2c5.742-6.294 1.508-16.428-7.004-16.766l-3.548-.141a10.02 10.02 0 0 1-9.614-9.603l-.125-3.06c-.352-8.593-10.653-12.78-16.9-6.869-4.637 4.39-12.143 3.379-15.455-2.082l-2.337-3.855c-3.864-6.371-13.083-6.446-17.05-.139l-.414.658c-3.929 6.247-13.035 6.247-16.964 0l-.568-.905c-3.93-6.247-13.035-6.247-16.964 0l-.57.905c-3.928 6.247-13.034 6.248-16.963 0l-.416-.66c-3.966-6.307-13.184-6.233-17.049.138l-2.342 3.861c-3.312 5.46-10.817 6.47-15.454 2.081l-.002-.001c-6.246-5.912-16.548-1.725-16.9 6.868l-.124 3.06a10.02 10.02 0 0 1-9.614 9.603l-3.547.142c-8.513.338-12.747 10.472-7.004 16.765l2.92 3.2a10.02 10.02 0 0 1-.132 13.648z" opacity="1" data-original="#ffd15b"></path><path fill="#44bc5b" d="M61.255 21.57S37.357 52.664 99.643 83.604c8.468-16.547-.209-49.688-38.388-62.034z" opacity="1" data-original="#44bc5b"></path><path fill="#33af50" d="M95.34 75.022C82.307 64.867 68.059 44.497 67.459 43.635l4.514-3.142c.142.204 14.376 20.552 26.747 30.19z" opacity="1" data-original="#33af50"></path><circle cx="119.536" cy="60.415" r="29.222" fill="#fd4755" opacity="1" data-original="#fd4755" class=""></circle><circle cx="119.536" cy="50.04" r="17.152" fill="#e80732" opacity="1" data-original="#e80732" class=""></circle><circle cx="119.536" cy="58.299" r="7.782" fill="#fd4755" opacity="1" data-original="#fd4755" class=""></circle><circle cx="176.506" cy="68.755" r="29.222" fill="#fd4755" opacity="1" data-original="#fd4755" class=""></circle><circle cx="180.625" cy="59.233" r="17.152" fill="#e80732" opacity="1" data-original="#e80732" class=""></circle><circle cx="177.346" cy="66.812" r="7.782" fill="#fd4755" opacity="1" data-original="#fd4755" class=""></circle><path fill="#44bc5b" d="M235.304 67.577s13.897 36.673-54.67 48.3c-3.328-18.288 14.553-47.51 54.67-48.3z" opacity="1" data-original="#44bc5b"></path><path fill="#33af50" d="m187.232 108.903-1.983-5.13c14.64-5.658 34.133-21.021 34.329-21.175l3.413 4.312c-.823.652-20.349 16.038-35.76 21.993z" opacity="1" data-original="#33af50"></path><circle cx="167.178" cy="121.488" r="29.222" fill="#fd4755" opacity="1" data-original="#fd4755" class=""></circle><circle cx="172.807" cy="112.774" r="17.152" fill="#e80732" opacity="1" data-original="#e80732" class=""></circle><circle cx="168.326" cy="119.711" r="7.782" fill="#fd4755" opacity="1" data-original="#fd4755" class=""></circle><circle cx="66.87" cy="91.502" r="29.222" fill="#fd4755" opacity="1" data-original="#fd4755" class=""></circle><circle cx="61.624" cy="82.551" r="17.152" fill="#e80732" opacity="1" data-original="#e80732" class=""></circle><circle cx="65.8" cy="89.676" r="7.782" fill="#fd4755" opacity="1" data-original="#fd4755" class=""></circle><path fill="#44bc5b" d="M20.614 138.245s7.906-38.412 72.038-11.506c-6.986 17.225-37.736 32.325-72.038 11.506z" opacity="1" data-original="#44bc5b"></path><path fill="#33af50" d="M83.921 134.488c-15.38-3.062-40.083-.53-40.331-.504l-.573-5.47c1.044-.11 25.774-2.644 41.978.58z" opacity="1" data-original="#33af50"></path><circle cx="113.432" cy="124.059" r="29.222" fill="#fd4755" opacity="1" data-original="#fd4755" class=""></circle><circle cx="109.466" cy="114.472" r="17.152" fill="#e80732" opacity="1" data-original="#e80732" class=""></circle><circle cx="112.623" cy="122.103" r="7.782" fill="#fd4755" opacity="1" data-original="#fd4755" class=""></circle><path fill="#e80732" d="M72.898 195.782c-3.342 0-6.578-.496-9.374-1.772-4.046-1.845-6.753-5.039-8.047-9.49a2.754 2.754 0 0 1-.057-1.3c1.136-5.76 4.445-8.22 7.02-9.27 11.772-4.8 33.029 9.416 35.414 11.053a2.749 2.749 0 0 1-.405 4.764c-.678.313-13.22 6.015-24.551 6.015zm-11.935-12.155c.89 2.537 2.48 4.3 4.844 5.38 6.473 2.952 17.427.228 24.478-2.284-7.495-4.422-19.585-10.204-25.77-7.68-1.165.476-2.764 1.468-3.552 4.584z" opacity="1" data-original="#e80732" class=""></path><path fill="#e80732" d="m61.459 212.159-.344-5.49c25.448-1.594 32.921-19.442 32.994-19.622a2.753 2.753 0 0 1 3.483-1.56c.327.117 33.072 11.678 54.902 1.284l2.364 4.966c-20.618 9.818-48.579 2.288-56.808-.303-3.148 5.586-13.185 19.259-36.591 20.725z" opacity="1" data-original="#e80732" class=""></path></g></svg>