<svg xmlns="http://www.w3.org/2000/svg" version="1.1" xmlns:xlink="http://www.w3.org/1999/xlink" width="512" height="512" x="0" y="0" viewBox="0 0 682.667 682.667" style="enable-background:new 0 0 512 512" xml:space="preserve" class=""><g><defs><clipPath id="a" clipPathUnits="userSpaceOnUse"><path d="M0 512h512V0H0Z" fill="#000000" opacity="1" data-original="#000000"></path></clipPath></defs><g clip-path="url(#a)" transform="matrix(1.33333 0 0 -1.33333 0 682.667)"><path d="m0 0-38.118 238.247c-3.732 23.324-23.853 40.482-47.474 40.482h-214.204c-23.62 0-43.742-17.158-47.474-40.482L-385.388 0Z" style="fill-opacity:1;fill-rule:nonzero;stroke:none" transform="translate(448.694 100.769)" fill="#fff3d7" data-original="#fff3d7"></path><path d="m0 0 38.118 238.247c3.732 23.324 23.853 40.482 47.474 40.482h-25.92c-23.62 0-43.742-17.158-47.474-40.482L-25.92 0h385.388z" style="fill-opacity:1;fill-rule:nonzero;stroke:none" transform="translate(89.226 100.769)" fill="#f9dbaa" data-original="#f9dbaa"></path><path d="m0 0-5.092 31.826c-3.731 23.323-23.853 40.482-47.473 40.482H-266.77c-23.62 0-43.741-17.159-47.473-40.482L-319.335 0h24.025c8.851 0 16.026-7.175 16.026-16.026v-60.385c0-8.497 6.888-15.385 15.385-15.385s15.385 6.888 15.385 15.385v29.74c0 11.679 9.081 21.626 20.753 22.041 12.254.436 22.324-9.368 22.324-21.524v-6.778c0-10.904 8.839-19.744 19.744-19.744 10.904 0 19.743 8.84 19.743 19.744v36.906C-165.95-7.175-158.774 0-149.924 0h55.385c8.851 0 16.026-7.175 16.026-16.026v-73.591c0-9.558 7.749-17.307 17.308-17.307 9.559 0 17.308 7.749 17.308 17.307v73.591C-43.897-7.175-36.722 0-27.872 0z" style="fill-opacity:1;fill-rule:nonzero;stroke:none" transform="translate(415.668 307.19)" fill="#ff415b" data-original="#ff415b" class=""></path><path d="M0 0h-25.919C-49.54 0-69.661-17.158-73.393-40.482l-5.092-31.826h24.026c.635 0 1.259-.047 1.875-.119l5.111 31.945C-43.741-17.158-23.62 0 0 0" style="fill-opacity:1;fill-rule:nonzero;stroke:none" transform="translate(174.817 379.498)" fill="#ef2b55" data-original="#ef2b55" class=""></path><path d="M0 0h24.025c8.851 0 16.026-7.175 16.026-16.026v-60.385c0-8.497 6.888-15.385 15.385-15.385s15.385 6.888 15.385 15.385v29.74c0 11.679 9.081 21.626 20.753 22.041 12.254.436 22.324-9.368 22.324-21.524v-6.778c0-10.904 8.839-19.744 19.744-19.744 10.904 0 19.743 8.84 19.743 19.744v36.906C153.385-7.175 160.561 0 169.411 0h55.385c8.851 0 16.026-7.175 16.026-16.026v-73.591c0-9.558 7.749-17.307 17.308-17.307 9.558 0 17.307 7.749 17.307 17.307v20.027" style="stroke-width:15;stroke-linecap:round;stroke-linejoin:round;stroke-miterlimit:10;stroke-dasharray:none;stroke-opacity:1" transform="translate(96.332 307.19)" fill="none" stroke="#000000" stroke-width="15" stroke-linecap="round" stroke-linejoin="round" stroke-miterlimit="10" stroke-dasharray="none" stroke-opacity="" data-original="#000000"></path><path d="M0 0v21.044C0 29.895 7.175 37.07 16.026 37.07h27.871" style="stroke-width:15;stroke-linecap:round;stroke-linejoin:round;stroke-miterlimit:10;stroke-dasharray:none;stroke-opacity:1" transform="translate(371.77 270.12)" fill="none" stroke="#000000" stroke-width="15" stroke-linecap="round" stroke-linejoin="round" stroke-miterlimit="10" stroke-dasharray="none" stroke-opacity="" data-original="#000000"></path><path d="M0 0c13.474-22.937 38.343-37.407 65.269-37.407a76.9 76.9 0 0 1 4.629.141l45.32 2.769c14.814.905 28.03 8.507 36.258 20.858A47.232 47.232 0 0 1 157.709 0z" style="fill-opacity:1;fill-rule:nonzero;stroke:none" transform="translate(177.853 379.498)" fill="#ef2b55" data-original="#ef2b55" class=""></path><path d="M0 0h-25.92c-23.62 0-43.742-17.158-47.474-40.482l-10.801-67.511" style="stroke-width:15;stroke-linecap:round;stroke-linejoin:round;stroke-miterlimit:10;stroke-dasharray:none;stroke-opacity:1" transform="translate(174.818 379.498)" fill="none" stroke="#000000" stroke-width="15" stroke-linecap="round" stroke-linejoin="round" stroke-miterlimit="10" stroke-dasharray="none" stroke-opacity="" data-original="#000000"></path><path d="m0 0-21.869-136.683h385.388l-38.118 238.247c-3.732 23.324-23.853 40.482-47.474 40.482h-26.102" style="stroke-width:15;stroke-linecap:round;stroke-linejoin:round;stroke-miterlimit:10;stroke-dasharray:none;stroke-opacity:1" transform="translate(85.175 237.452)" fill="none" stroke="#000000" stroke-width="15" stroke-linecap="round" stroke-linejoin="round" stroke-miterlimit="10" stroke-dasharray="none" stroke-opacity="" data-original="#000000"></path><path d="M0 0h-295.68c-6.627 0-12 5.373-12 12v40.92H12V12C12 5.373 6.627 0 0 0" style="fill-opacity:1;fill-rule:nonzero;stroke:none" transform="translate(403.84 7.5)" fill="#d4d4e8" data-original="#d4d4e8"></path><path d="M0 0v32.22h-319.68V-8.7c0-6.627 5.373-12 12-12h29.52c-6.627 0-12 5.373-12 12V0Z" style="fill-opacity:1;fill-rule:nonzero;stroke:none" transform="translate(415.84 28.2)" fill="#c6c6e0" data-original="#c6c6e0"></path><path d="M0 0h-295.68c-6.627 0-12 5.373-12 12v40.92H12V12C12 5.373 6.627 0 0 0Z" style="stroke-width:15;stroke-linecap:round;stroke-linejoin:round;stroke-miterlimit:10;stroke-dasharray:none;stroke-opacity:1" transform="translate(403.84 7.5)" fill="none" stroke="#000000" stroke-width="15" stroke-linecap="round" stroke-linejoin="round" stroke-miterlimit="10" stroke-dasharray="none" stroke-opacity="" data-original="#000000"></path><path d="m0 0-7.618-18.647a44.999 44.999 0 0 0-41.657-27.982h-381.559a45 45 0 0 0-41.658 27.982L-480.109 0c-4.032 9.867 3.227 20.672 13.885 20.672h452.338C-3.227 20.672 4.031 9.867 0 0" style="fill-opacity:1;fill-rule:nonzero;stroke:none" transform="translate(496.055 92.118)" fill="#e9e9ff" data-original="#e9e9ff"></path><path d="m0 0-7.618 18.646c-4.031 9.868 3.227 20.673 13.886 20.673h-29.52c-10.659 0-17.917-10.805-13.886-20.673L-29.52 0a45 45 0 0 1 41.658-27.982h29.52A45 45 0 0 0 0 0" style="fill-opacity:1;fill-rule:nonzero;stroke:none" transform="translate(53.083 73.471)" fill="#d4d4e8" data-original="#d4d4e8"></path><path d="M0 0h-260.979a45 45 0 0 0-41.658 27.982l-7.618 18.647c-4.031 9.867 3.227 20.672 13.886 20.672h452.338c10.658 0 17.917-10.805 13.885-20.672l-7.617-18.647A45 45 0 0 0 120.579 0H36" style="stroke-width:15;stroke-linecap:round;stroke-linejoin:round;stroke-miterlimit:10;stroke-dasharray:none;stroke-opacity:1" transform="translate(326.2 45.49)" fill="none" stroke="#000000" stroke-width="15" stroke-linecap="round" stroke-linejoin="round" stroke-miterlimit="10" stroke-dasharray="none" stroke-opacity="" data-original="#000000"></path><path d="m0 0-.631.664c-11.461 12.06-30.539 12.513-42.56 1.012L-54.028-8.691c-4.839-4.629-3.219-12.719 3.03-15.127l13.994-5.394c15.523-5.985 32.954 1.781 38.887 17.325l.326.855A10.552 10.552 0 0 1 0 0" style="fill-opacity:1;fill-rule:nonzero;stroke:none" transform="translate(213.82 436.02)" fill="#3cb372" data-original="#3cb372"></path><path d="m0 0-.631.664c-11.461 12.06-30.539 12.513-42.56 1.012L-54.028-8.691c-4.839-4.629-3.219-12.719 3.03-15.127l13.994-5.394c15.523-5.985 32.954 1.781 38.887 17.325l.326.855A10.552 10.552 0 0 1 0 0Z" style="stroke-width:15;stroke-linecap:round;stroke-linejoin:round;stroke-miterlimit:10;stroke-dasharray:none;stroke-opacity:1" transform="translate(213.82 436.02)" fill="none" stroke="#000000" stroke-width="15" stroke-linecap="round" stroke-linejoin="round" stroke-miterlimit="10" stroke-dasharray="none" stroke-opacity="" data-original="#000000"></path><path d="m0 0-.855.326c-15.544 5.933-23.31 23.364-17.326 38.888l5.395 13.994c2.408 6.248 10.498 7.868 15.127 3.029L12.708 45.4c11.501-12.021 11.047-31.099-1.012-42.56l-.664-.631A10.552 10.552 0 0 0 0 0" style="fill-opacity:1;fill-rule:nonzero;stroke:none" transform="translate(220.095 445.44)" fill="#3cb372" data-original="#3cb372"></path><path d="m0 0-.855.326c-15.544 5.933-23.31 23.364-17.326 38.888l5.395 13.994c2.408 6.248 10.498 7.868 15.127 3.029L12.708 45.4c11.501-12.021 11.047-31.099-1.012-42.56l-.664-.631A10.552 10.552 0 0 0 0 0Z" style="stroke-width:15;stroke-linecap:round;stroke-linejoin:round;stroke-miterlimit:10;stroke-dasharray:none;stroke-opacity:1" transform="translate(220.095 445.44)" fill="none" stroke="#000000" stroke-width="15" stroke-linecap="round" stroke-linejoin="round" stroke-miterlimit="10" stroke-dasharray="none" stroke-opacity="" data-original="#000000"></path><path d="m0 0-.836-.374c-15.186-6.796-33.003.039-39.748 15.247l-6.081 13.709c-2.715 6.121 1.859 12.987 8.554 12.839l14.994-.332C-6.484 40.721 6.685 26.91 6.261 10.278l-.023-.915A10.552 10.552 0 0 0 0 0" style="fill-opacity:1;fill-rule:nonzero;stroke:none" transform="translate(219.9 432.009)" fill="#41c47d" data-original="#41c47d"></path><path d="m0 0-.836-.374c-15.186-6.796-33.003.039-39.748 15.247l-6.081 13.709c-2.715 6.121 1.859 12.987 8.554 12.839l14.994-.332C-6.484 40.721 6.685 26.91 6.261 10.278l-.023-.915A10.552 10.552 0 0 0 0 0Z" style="stroke-width:15;stroke-linecap:round;stroke-linejoin:round;stroke-miterlimit:10;stroke-dasharray:none;stroke-opacity:1" transform="translate(219.9 432.009)" fill="none" stroke="#000000" stroke-width="15" stroke-linecap="round" stroke-linejoin="round" stroke-miterlimit="10" stroke-dasharray="none" stroke-opacity="" data-original="#000000"></path><path d="m0 0 .353-.013c20.888-.77 39.163-14.281 46.022-34.026L61.273-76.93c4.785-13.772-4.899-28.306-19.451-29.195l-45.321-2.768c-20.863-1.274-40.37 10.387-49.125 29.368l-.148.32a34.049 34.049 0 0 0 2.583 33.14l20.6 30.919A34.048 34.048 0 0 0 0 0" style="fill-opacity:1;fill-rule:nonzero;stroke:none" transform="translate(249.726 476.08)" fill="#ff6969" data-original="#ff6969"></path><path d="M0 0c-20.864-1.274-40.371 10.387-49.126 29.368l-.148.32a34.049 34.049 0 0 0 2.583 33.14l20.6 30.919a34.024 34.024 0 0 0 7.125 7.745 34.04 34.04 0 0 1-28.005-15.154l-20.6-30.919a34.047 34.047 0 0 1-2.583-33.139l.148-.321C-61.251 2.978-41.744-8.683-20.88-7.409L24.44-4.64a21.832 21.832 0 0 1 14.829 7.038z" style="fill-opacity:1;fill-rule:nonzero;stroke:none" transform="translate(267.108 374.595)" fill="#ff415b" data-original="#ff415b" class=""></path><path d="M0 0a8.42 8.42 0 0 0-11.676-2.338A8.42 8.42 0 1 0 0 0" style="fill-opacity:1;fill-rule:nonzero;stroke:none" transform="translate(240.269 403.712)" fill="#000000" data-original="#000000"></path><path d="M0 0a8.42 8.42 0 1 0-14.015 9.338A8.42 8.42 0 0 0 0 0" style="fill-opacity:1;fill-rule:nonzero;stroke:none" transform="translate(260.762 434.47)" fill="#000000" data-original="#000000"></path><path d="M0 0a8.418 8.418 0 0 0-11.675-2.338 8.42 8.42 0 1 0 9.337 14.014A8.42 8.42 0 0 0 0 0" style="fill-opacity:1;fill-rule:nonzero;stroke:none" transform="translate(275.115 402.7)" fill="#000000" data-original="#000000"></path><path d="m0 0 .353-.013c20.888-.77 39.163-14.281 46.022-34.026L61.273-76.93c4.785-13.772-4.899-28.306-19.451-29.195l-45.321-2.768c-20.863-1.274-40.37 10.387-49.125 29.368l-.148.32a34.049 34.049 0 0 0 2.583 33.14l20.6 30.919A34.048 34.048 0 0 0 0 0Z" style="stroke-width:15;stroke-linecap:round;stroke-linejoin:round;stroke-miterlimit:10;stroke-dasharray:none;stroke-opacity:1" transform="translate(249.726 476.08)" fill="none" stroke="#000000" stroke-width="15" stroke-linecap="round" stroke-linejoin="round" stroke-miterlimit="10" stroke-dasharray="none" stroke-opacity="" data-original="#000000"></path></g></g></svg>