<svg xmlns="http://www.w3.org/2000/svg" version="1.1" xmlns:xlink="http://www.w3.org/1999/xlink" xmlns:svgjs="http://svgjs.com/svgjs" width="512" height="512" x="0" y="0" viewBox="0 0 25 25" style="enable-background:new 0 0 512 512" xml:space="preserve" class=""><g><g xmlns="http://www.w3.org/2000/svg" id="Layer_21" data-name="Layer 21"><path d="m18.21 2h-11.42a2.83 2.83 0 0 0 -2.79 2.86v16.34a1.67 1.67 0 0 0 1 1.54 1.57 1.57 0 0 0 1.74-.27l5.35-4.74a.69.69 0 0 1 .86 0l5.35 4.74a1.59 1.59 0 0 0 1.74.27 1.67 1.67 0 0 0 1-1.54v-16.34a2.83 2.83 0 0 0 -2.83-2.86z" fill="#fff" data-original="#fff" class=""></path></g></g></svg>