<?xml version="1.0" encoding="utf-8"?>
<!-- Generator: Adobe Illustrator 15.0.0, SVG Export Plug-In . SVG Version: 6.00 Build 0)  -->
<!DOCTYPE svg PUBLIC "-//W3C//DTD SVG 1.1//EN" "http://www.w3.org/Graphics/SVG/1.1/DTD/svg11.dtd">
<svg version="1.1" id="Capa_1" xmlns="http://www.w3.org/2000/svg" xmlns:xlink="http://www.w3.org/1999/xlink" x="0px" y="0px"
	 width="512px" height="512px" viewBox="0 0 512 512" enable-background="new 0 0 512 512" xml:space="preserve">
<g>
	<g>
		<path fill="#FFFFFF" d="M389.256,338.698c-16.727-16.515-37.609-16.515-54.229,0c-12.679,12.571-25.357,25.144-37.822,37.929
			c-3.409,3.516-6.286,4.262-10.441,1.918c-8.204-4.475-16.94-8.098-24.824-12.998c-36.757-23.119-67.548-52.846-94.822-86.299
			c-13.531-16.621-25.57-34.414-33.987-54.444c-1.705-4.048-1.385-6.712,1.918-10.015c12.678-12.252,25.037-24.825,37.503-37.396
			c17.366-17.473,17.366-37.929-0.107-55.509c-9.908-10.015-19.816-19.817-29.725-29.832c-10.229-10.228-20.35-20.563-30.685-30.685
			c-16.727-16.301-37.609-16.301-54.229,0.107C45.019,74.047,32.766,86.938,19.768,99.297c-12.039,11.4-18.112,25.357-19.391,41.658
			c-2.024,26.529,4.475,51.566,13.638,75.965c18.751,50.501,47.305,95.355,81.931,136.48
			c46.772,55.615,102.601,99.618,167.911,131.367c29.405,14.276,59.876,25.251,93.011,27.062
			c22.801,1.279,42.617-4.475,58.492-22.267c10.867-12.146,23.119-23.227,34.626-34.84c17.047-17.26,17.153-38.143,0.213-55.189
			C429.955,379.184,409.606,358.941,389.256,338.698z"/>
		<path fill="#FFFFFF" d="M368.906,253.784l39.314-6.712c-6.18-36.118-23.227-68.827-49.116-94.823
			c-27.381-27.381-62.007-44.641-100.149-49.968l-5.54,39.527c29.513,4.155,56.36,17.473,77.563,38.675
			C351.008,200.513,364.113,225.87,368.906,253.784z"/>
		<path fill="#FFFFFF" d="M430.382,82.89C384.994,37.503,327.569,8.843,264.176,0l-5.54,39.527
			c54.763,7.671,104.411,32.495,143.619,71.596c37.183,37.184,61.581,84.168,70.424,135.842l39.314-6.712
			C501.658,180.376,473.425,126.04,430.382,82.89z"/>
	</g>
</g>
</svg>