<svg version="1.1" xmlns="http://www.w3.org/2000/svg" xmlns:xlink="http://www.w3.org/1999/xlink" x="0px" y="0px"
	 viewBox="0 0 512 512" style="enable-background:new 0 0 512 512;" xml:space="preserve">
	<path fill="#0f0f10" d="M504.752,240.915l-89.088-89.088c-88.737-88.737-232.591-88.737-321.327,0L5.248,240.915
		c-8.331,8.331-8.331,21.839,0,30.17l89.088,89.088c88.737,88.737,232.591,88.737,321.327,0l89.088-89.088
		C513.083,262.754,513.083,249.246,504.752,240.915z M385.494,330.003c-72.074,72.074-188.913,72.074-260.987,0L50.503,256
		l74.003-74.003c72.074-72.074,188.913-72.074,260.987,0L459.497,256L385.494,330.003z"/>
	<path fill="#0f0f10" d="M255,149.333c-58.907,0-106.667,47.759-106.667,106.667S196.093,362.667,255,362.667S361.667,314.907,361.667,256
		S313.907,149.333,255,149.333z M255,320c-35.343,0-64-28.657-64-64s28.657-64,64-64s64,28.657,64,64S290.343,320,255,320z"/>
</svg>