<svg class="hide" xmlns="http://www.w3.org/2000/svg">
	<symbol id="icon-whatsapp" viewBox="0 0 455.731 455.731">
		<g>
			<rect x="0" y="0" width="455.731" height="455.731"/>
			<g>
				<path style="fill:#FFFFFF;" d="M68.494,387.41l22.323-79.284c-14.355-24.387-21.913-52.134-21.913-80.638
					c0-87.765,71.402-159.167,159.167-159.167s159.166,71.402,159.166,159.167c0,87.765-71.401,159.167-159.166,159.167
					c-27.347,0-54.125-7-77.814-20.292L68.494,387.41z M154.437,337.406l4.872,2.975c20.654,12.609,44.432,19.274,68.762,19.274
					c72.877,0,132.166-59.29,132.166-132.167S300.948,95.321,228.071,95.321S95.904,154.611,95.904,227.488
					c0,25.393,7.217,50.052,20.869,71.311l3.281,5.109l-12.855,45.658L154.437,337.406z"/>
				<path style="fill:#FFFFFF;" d="M183.359,153.407l-10.328-0.563c-3.244-0.177-6.426,0.907-8.878,3.037
					c-5.007,4.348-13.013,12.754-15.472,23.708c-3.667,16.333,2,36.333,16.667,56.333c14.667,20,42,52,90.333,65.667
					c15.575,4.404,27.827,1.435,37.28-4.612c7.487-4.789,12.648-12.476,14.508-21.166l1.649-7.702c0.524-2.448-0.719-4.932-2.993-5.98
					l-34.905-16.089c-2.266-1.044-4.953-0.384-6.477,1.591l-13.703,17.764c-1.035,1.342-2.807,1.874-4.407,1.312
					c-9.384-3.298-40.818-16.463-58.066-49.687c-0.748-1.441-0.562-3.19,0.499-4.419l13.096-15.15
					c1.338-1.547,1.676-3.722,0.872-5.602l-15.046-35.201C187.187,154.774,185.392,153.518,183.359,153.407z"/>
			</g>
		</g>
	</symbol>

	<symbol id="icon-telegram" viewBox="0 0 24 24">	
		<circle cx="12" cy="12" r="12"/>
		<path d="m5.491 11.74 11.57-4.461c.537-.194 1.006.131.832.943l.001-.001-1.97 9.281c-.146.658-.537.818-1.084.508l-3-2.211-1.447 1.394c-.16.16-.295.295-.605.295l.213-3.053 5.56-5.023c.242-.213-.054-.333-.373-.121l-6.871 4.326-2.962-.924c-.643-.204-.657-.643.136-.953z" fill="#fff"/>
	</symbol>	

	<symbol id="cross" viewBox="0 0 329.26933 329">
		<path d="m194.800781 164.769531 128.210938-128.214843c8.34375-8.339844 8.34375-21.824219 0-30.164063-8.339844-8.339844-21.824219-8.339844-30.164063 0l-128.214844 128.214844-128.210937-128.214844c-8.34375-8.339844-21.824219-8.339844-30.164063 0-8.34375 8.339844-8.34375 21.824219 0 30.164063l128.210938 128.214843-128.210938 128.214844c-8.34375 8.339844-8.34375 21.824219 0 30.164063 4.15625 4.160156 9.621094 6.25 15.082032 6.25 5.460937 0 10.921875-2.089844 15.082031-6.25l128.210937-128.214844 128.214844 128.214844c4.160156 4.160156 9.621094 6.25 15.082032 6.25 5.460937 0 10.921874-2.089844 15.082031-6.25 8.34375-8.339844 8.34375-21.824219 0-30.164063zm0 0"/>
	</symbol>

	<symbol id="icon-scroll-top" viewBox="7 7 86 86">
		<g fill-rule="evenodd">
	        <path fill-rule="nonzero" fill="#FFFFFF" d="M93 19v62c0 6.627-5.373 12-12 12H19c-6.627 0-12-5.373-12-12V19c0-6.627 5.373-12 12-12h62c6.627 0 12 5.373 12 12z" data-color="1"></path>
	        <path fill-rule="nonzero" fill="#fd66c3" d="M19 9C13.477 9 9 13.477 9 19v62c0 5.523 4.477 10 10 10h62c5.523 0 10-4.477 10-10V19c0-5.523-4.477-10-10-10H19zm0-2h62c6.627 0 12 5.373 12 12v62c0 6.627-5.373 12-12 12H19c-6.627 0-12-5.373-12-12V19c0-6.627 5.373-12 12-12z" data-color="2"></path>
	        <path fill-rule="nonzero" fill="#fd66c3" d="M48.675 32.761l-11.1 10.852a1.557 1.557 0 0 1-2.12.03 1.373 1.373 0 0 1-.031-2.013l13.5-13.198a1.556 1.556 0 0 1 2.152 0l13.5 13.198a1.373 1.373 0 0 1-.03 2.012 1.557 1.557 0 0 1-2.121-.03L51.269 32.708v37.87c0 .786-.522 1.423-1.311 1.423-.79 0-1.283-.637-1.283-1.423V32.76z" data-color="2"></path> 
	    </g>
	</symbol>

	<symbol id="icon-compare" viewBox="0 0 477.427 477.427" xmlns="http://www.w3.org/2000/svg" xmlns:xlink="http://www.w3.org/1999/xlink">
		<g>
			<polygon points="143.372,1.213 113.372,1.213 113.372,391.327 41.958,391.095 128.289,477.427 214.06,391.655 143.372,391.425 	"/>
			<polygon points="435.469,86.332 349.138,0 263.367,85.772 334.3,86.003 334.3,476.213 364.3,476.213 364.3,86.1"/>
		</g>
	</symbol>
	
	<symbol id="icon-price" xmlns="http://www.w3.org/2000/svg"  xmlns:xlink="http://www.w3.org/1999/xlink" viewBox="0 0 512 512">
		<path fill="var(--ci-primary-color, currentColor)" d="M291.75,308.1a105.8,105.8,0,1,0,0-211.6H136v32h39.943V276.1H136v32h39.943V352H136v32h39.943v56h32V384H304V352H207.943V308.1ZM207.943,128.5H291.75a73.8,73.8,0,1,1,0,147.6H207.943Z" class="ci-primary"/>
	</symbol>
</svg>